# xmcd
#
# Track frame offsets: 
#        150
#        24464
#        59363
#        69957
#        89778
#        105435
#        121546
#        145960
#        172978
#        204990
#
# Disc length: 2968 seconds
#
# Revision: 12
# Processed by: cddbd v1.5.2PL0 Copyright (c) Steve Scherf et al.
# Submitted via: ExactAudioCopy v1.1
#
DISCID=7f0b960a
DTITLE=Muddy Waters - Hard Again
DYEAR=1976
DGENRE=Blues
TTITLE0=Mannish Boy (1976)
TTITLE1=Bus Driver
TTITLE2=I Want To Be Loved (1976)
TTITLE3=Jealous Hearted Man
TTITLE4=I Can't Be Satisfied (1976)
TTITLE5=The Blues Had A Baby And They Named It Rock And Roll #2
TTITLE6=Deep Down In Florida
TTITLE7=Crosseyed Cat
TTITLE8=Little Girl
TTITLE9=Walking Through The Park
EXTD=
EXTT0=
EXTT1=
EXTT2=
EXTT3=
EXTT4=
EXTT5=
EXTT6=
EXTT7=
EXTT8=
EXTT9=
PLAYORDER=
